<?xml version="1.0" encoding="UTF-8"?>
<svg version="1.1" xmlns="http://www.w3.org/2000/svg" width="1920" height="1080">
<path d="M0 0 C-2.14300929 8.60487138 -4.28931058 17.20892051 -6.4375 25.8125 C-6.60613556 26.48789825 -6.77477112 27.16329651 -6.94851685 27.85916138 C-14.41357509 57.75258027 -21.95269158 87.62725714 -29.5 117.5 C-29.78524914 118.62903873 -30.07049828 119.75807747 -30.36439133 120.9213295 C-33.90829583 134.94788126 -37.45352197 148.97409871 -41 163 C-41.99 163 -42.98 163 -44 163 C-45.93662181 161.00579475 -47.68493314 159.02228912 -49.4375 156.875 C-50.51930127 155.58053694 -51.60133901 154.28627146 -52.68359375 152.9921875 C-53.23515137 152.32670898 -53.78670898 151.66123047 -54.35498047 150.97558594 C-56.87009723 147.95505687 -59.43591048 144.97893726 -62 142 C-62.98449154 140.84905801 -63.96886572 139.69801562 -64.953125 138.546875 C-67.09601695 136.04543381 -69.25479552 133.55863518 -71.421875 131.078125 C-71.97875 130.43746094 -72.535625 129.79679688 -73.109375 129.13671875 C-74.18350827 127.90146549 -75.26149673 126.6695515 -76.34375 125.44140625 C-80 121.2249244 -80 121.2249244 -80 119 C-86.94495813 124.44075061 -93.67612031 130.09389341 -100.3515625 135.859375 C-102.74850527 137.92928705 -105.15941659 139.98047843 -107.5859375 142.015625 C-113.96333853 147.38214572 -120.04613597 152.8952202 -125.88110352 158.84936523 C-129.10441628 162.13450833 -132.43813563 165.18128372 -135.94140625 168.16015625 C-139.48585222 171.3279628 -142.77394758 174.75645234 -146.09375 178.15625 C-148.24837622 180.31698863 -150.49955881 182.32250635 -152.8125 184.3125 C-157.2613725 188.16482869 -161.37829265 192.30321601 -165.5 196.5 C-166.92450556 197.95045284 -168.35157464 199.39839265 -169.78125 200.84375 C-170.40064453 201.47474609 -171.02003906 202.10574219 -171.65820312 202.75585938 C-173.52097368 204.54094975 -175.40611212 206.20395168 -177.36889648 207.87329102 C-183.99956364 213.6414806 -190.11077812 219.96725112 -196.31640625 226.18359375 C-197.70053281 227.5670454 -199.08480768 228.95034868 -200.46922302 230.33351135 C-203.35960842 233.22242862 -206.2481934 236.11313076 -209.13549805 239.00512695 C-212.81924045 242.69456608 -216.50745488 246.37949676 -220.1970377 250.06309414 C-223.05316293 252.91558982 -225.90688238 255.77048277 -228.75990105 258.62608528 C-230.11821232 259.98505921 -231.47725453 261.34330299 -232.83706856 262.70077324 C-241.99446186 271.78594584 -241.99446186 271.78594584 -250.60423279 281.38404846 C-253.38204875 284.60006897 -256.46759266 287.52662518 -259.5 290.5 C-264.01269412 294.96421791 -268.41707596 299.43653196 -272.51171875 304.29296875 C-274.71340639 306.81826403 -277.10789159 309.13368961 -279.51953125 311.45703125 C-281.21835505 313.13707372 -281.21835505 313.13707372 -283 316 C-282.10107151 316.00238835 -281.20214302 316.00477671 -280.27597427 316.00723743 C-258.32100401 316.06658265 -236.36614174 316.14225605 -214.41128922 316.23571491 C-203.79373421 316.2805258 -193.17621165 316.31997369 -182.55859375 316.34643555 C-173.2955456 316.36953547 -164.03260141 316.40306534 -154.76963592 316.44870156 C-149.87290051 316.47247336 -144.97626703 316.4913065 -140.0794754 316.49761391 C-135.45340135 316.50373833 -130.82758753 316.52399701 -126.20161057 316.55427551 C-124.52006984 316.56293964 -122.83849492 316.56680307 -121.15693283 316.56500816 C-90.31970634 316.54252168 -59.40637274 322.78350322 -36.3203125 344.5234375 C-15.29732615 366.31321971 -10.43419309 396.21746017 -10.7890625 425.39453125 C-11.44392496 449.24850278 -20.25674208 473.04770787 -36 491 C-36.59039063 491.73347656 -37.18078125 492.46695312 -37.7890625 493.22265625 C-53.05064382 511.63396818 -75.01257507 522.03680598 -98 527 C-96.64068359 527.61875 -96.64068359 527.61875 -95.25390625 528.25 C-79.20772895 535.76337097 -71.24046206 545.08903426 -65.17578125 561.82421875 C-61.47256758 574.23047138 -60.56739632 585.89407012 -60.71875 598.76977539 C-60.74991971 601.43064617 -60.75974588 604.09091745 -60.765625 606.75195312 C-60.80087109 614.46409249 -60.95619609 622.13428847 -61.5 629.828125 C-62.15588246 639.29608649 -62.22205621 648.75565093 -62.24023438 658.24389648 C-62.24995271 661.29763921 -62.28110318 664.35071043 -62.3125 667.40429688 C-62.37453207 679.13344785 -61.635063 690.31587531 -59.38494873 701.83708191 C-58.84368517 704.87828881 -58.43685022 707.94204847 -58 711 C-86.38 711 -114.76 711 -144 711 C-147.38105361 694.09473195 -147.38105361 694.09473195 -147.3984375 687.77734375 C-147.40239532 687.08067093 -147.40635315 686.38399811 -147.41043091 685.66621399 C-147.41609945 683.4228808 -147.3972373 681.18071716 -147.375 678.9375 C-147.37234131 678.15185669 -147.36968262 677.36621338 -147.36694336 676.5567627 C-147.31500465 663.25446048 -146.44568042 650.08393422 -145.28942871 636.83764648 C-141.30161646 603.33037371 -141.30161646 603.33037371 -153 573 C-162.01663943 563.03333151 -173.10312677 559.5931048 -186.29335022 558.87517548 C-192.91743501 558.64487065 -199.54447435 558.62286078 -206.171875 558.5859375 C-208.30707525 558.56719876 -210.44226831 558.5476234 -212.57745361 558.5272522 C-218.16023491 558.47621066 -223.74304015 558.43643622 -229.32592773 558.39910889 C-235.0376565 558.35889261 -240.74928811 558.3078812 -246.4609375 558.2578125 C-257.64055647 558.16138503 -268.82023066 558.07687539 -280 558 C-280.10618652 559.19573135 -280.21237305 560.39146271 -280.32177734 561.62342834 C-281.05497048 568.17653613 -282.47835605 574.58237583 -283.8515625 581.02514648 C-284.14601179 582.42214979 -284.44008924 583.81923152 -284.73382568 585.21638489 C-285.52736689 588.98530634 -286.32626932 592.75307237 -287.12633514 596.52061343 C-287.96411761 600.46954058 -288.79741662 604.41941397 -289.63134766 608.36915588 C-291.03054128 614.9927512 -292.43314608 621.61561696 -293.83789062 628.23803711 C-295.46276897 635.89840516 -297.08261907 643.55982309 -298.6997242 651.22183555 C-300.25673749 658.59872637 -301.81688065 665.97495161 -303.37860107 673.35084724 C-304.04301107 676.48896527 -304.70638883 679.6272989 -305.36895752 682.7658062 C-306.14779473 686.45422299 -306.92938661 690.14204542 -307.7131424 693.82942009 C-308.0007206 695.1845445 -308.28735444 696.53986969 -308.57299042 697.89540482 C-308.96195968 699.740538 -309.35465377 701.58488481 -309.74755859 703.42918396 C-309.9665683 704.46280784 -310.185578 705.49643171 -310.41122437 706.56137753 C-311 709 -311 709 -312 711 C-340.71 711 -369.42 711 -399 711 C-397.87499652 699.74996524 -397.87499652 699.74996524 -396.88023376 694.98057556 C-396.65592336 693.89250296 -396.43161295 692.80443035 -396.20050526 691.68338585 C-395.95507827 690.51935045 -395.70965128 689.35531506 -395.45678711 688.15600586 C-395.19527957 686.89515985 -394.93377203 685.63431385 -394.66434002 684.33526039 C-393.94348153 680.86041959 -393.21620146 677.38695057 -392.48779154 673.91368604 C-391.70169003 670.1597029 -390.92158713 666.40447282 -390.14071655 662.6493988 C-388.61225138 655.30398707 -387.07826073 647.95973976 -385.54244614 640.61586159 C-383.7509445 632.04813121 -381.96535011 623.47917288 -380.17993724 614.91017199 C-376.03790086 595.03219702 -371.88554738 575.15638263 -367.73090369 555.28103948 C-365.81888666 546.13404556 -363.90783883 536.98684924 -361.99679053 527.8396529 C-356.06804367 499.46238998 -350.13672372 471.0856654 -344.19702148 442.71069336 C-344.03257585 441.92510807 -343.86813022 441.13952279 -343.69870138 440.33013189 C-342.29294686 433.61474972 -340.88709636 426.89938765 -339.48069382 420.18414116 C-339.33888341 419.5070292 -339.197073 418.82991723 -339.05096531 418.13228673 C-338.77090064 416.79509117 -338.49082007 415.45789895 -338.21072292 414.12071019 C-337.54760693 410.95469123 -336.88505084 407.78855662 -336.22327042 404.62225819 C-334.98765578 398.7104572 -333.7470479 392.79980698 -332.49520874 386.89141846 C-332.25975688 385.77507334 -332.02430502 384.65872822 -331.78171825 383.50855446 C-331.34140162 381.42113595 -330.89880102 379.33419738 -330.45348835 377.24783897 C-330.26095069 376.33256243 -330.06841303 375.41728588 -329.87004089 374.47427368 C-329.70106891 373.67799372 -329.53209692 372.88171375 -329.35800457 372.06130409 C-328.91444148 369.85606831 -328.91444148 369.85606831 -329 367 C-334.76608319 373.22351777 -340.33001809 379.52478076 -345.66015625 386.12890625 C-348.18733747 389.22987151 -350.77629779 392.271621 -353.375 395.3125 C-357.62563864 400.30302352 -361.71847355 405.39676275 -365.74267578 410.57104492 C-368.65672806 414.31161536 -371.62499864 417.99997725 -374.63696289 421.66210938 C-382.09035711 430.73207903 -389.15924765 440.06236023 -396.14453125 449.49609375 C-397.92404114 451.89749552 -399.71120135 454.29301332 -401.5 456.6875 C-452.28552716 524.87924088 -512.97617484 612.82595108 -503.68359375 702.03759766 C-499.29033863 730.50311837 -482.52898877 754.87243736 -459.625 771.75 C-457.11164594 773.54388248 -454.56826617 775.28580348 -452 777 C-451.14728516 777.57113525 -451.14728516 777.57113525 -450.27734375 778.15380859 C-380.93641918 823.78448082 -285.40425151 832.40982883 -204.2578125 835.96484375 C-203.32843243 836.00632601 -202.39905235 836.04780827 -201.44150925 836.09054756 C-176.1759169 837.2155588 -150.90091695 838.08280727 -125.625 838.9375 C-123.08267175 839.02389458 -120.54034387 839.11030017 -117.99801636 839.19671631 C-46.4587082 841.62266766 25.09086726 843.63598387 96.65730667 845.06322479 C99.61260371 845.12225557 102.56788374 845.18208335 105.52316284 845.24200439 C120.01484181 845.53345063 134.50707186 845.77965825 149 846 C149.68961539 846.01050164 150.37923079 846.02100328 151.08974361 846.03182316 C203.42918989 846.82636072 255.75956291 847.16390432 308.10479736 847.12856925 C314.35925839 847.12478477 320.6137036 847.1261774 326.86816406 847.13037109 C387.68635456 847.17002583 448.49719889 846.77984667 509.2974472 845.1843338 C511.68031157 845.12191389 514.06320631 845.06075232 516.44610596 844.99969482 C594.62570027 842.9846976 672.78279617 839.70264632 1120 766 C1120.72316406 765.66258789 1121.44632813 765.32517578 1122.19140625 764.97753906 C1140.36396591 756.40163038 1162.09319544 746.07224331 1170.95703125 726.93359375 C1172 725 1172 725 1173.38891602 723.69042969 C1175.34654819 721.63638435 1176.4891495 719.52563774 1177.8203125 717.01953125 C1178.35172852 716.02719482 1178.88314453 715.0348584 1179.43066406 714.01245117 C1180.26936035 712.42847534 1180.26936035 712.42847534 1181.125 710.8125 C1182.28795235 708.6374269 1183.45201924 706.46294936 1184.6171875 704.2890625 C1185.18920898 703.22075195 1185.76123047 702.15244141 1186.35058594 701.05175781 C1188.95199757 696.23860722 1191.64583817 691.47924442 1194.37158203 686.7355957 C1195.8354862 684.16937942 1197.06231031 681.81306908 1198 679 C1197.2265625 678.79117188 1196.453125 678.58234375 1195.65625 678.3671875 C1190.61620693 676.48255601 1186.1483023 673.81690276 1181.5 671.125 C1179.45785849 669.95558547 1177.41486562 668.78765659 1175.37109375 667.62109375 C1174.32550293 667.02409668 1173.27991211 666.42709961 1172.20263672 665.81201172 C1167.02041489 662.87997556 1161.79424205 660.02997645 1156.5625 657.1875 C1155.6034375 656.66623535 1154.644375 656.1449707 1153.65625 655.60791016 C1151.43829542 654.40379601 1149.21962652 653.20102855 1147 652 C1147 651.34 1147 650.68 1147 650 C1162.29264441 642.29365957 1177.63528335 634.72208685 1193.10498047 627.37695312 C1198.11757635 624.99282083 1203.12125295 622.59013511 1208.125 620.1875 C1209.66812866 619.44681274 1209.66812866 619.44681274 1211.24243164 618.69116211 C1219.33369354 614.80528858 1227.41762575 610.90431101 1235.5 607 C1246.68232818 601.59836062 1257.86878937 596.20550454 1269.0703125 590.84375 C1273.0919519 588.91845478 1277.10656191 586.97937829 1281.1171875 585.03125 C1283.036437 584.1041225 1284.95570689 583.17703721 1286.875 582.25 C1287.75542969 581.81913086 1288.63585938 581.38826172 1289.54296875 580.94433594 C1290.35121094 580.55536133 1291.15945313 580.16638672 1291.9921875 579.765625 C1292.69714355 579.42305664 1293.40209961 579.08048828 1294.12841797 578.72753906 C1296 578 1296 578 1299 578 C1300.58309331 586.84358885 1301.72344705 595.69221957 1302.69580078 604.62182617 C1302.8534565 606.04742907 1303.01139325 607.47300092 1303.16958618 608.89854431 C1303.59413585 612.73267965 1304.01443913 616.56726871 1304.43365335 620.40199065 C1304.78531862 623.61542292 1305.13903051 626.82862865 1305.49270427 630.04184037 C1306.32717946 637.62382797 1307.15811387 645.20619782 1307.98681641 652.78881836 C1308.83956496 660.59087177 1309.69837935 668.39224077 1310.56015027 676.19330233 C1311.30257131 682.91596103 1312.04119618 689.63902953 1312.77681339 696.36243612 C1313.21504166 700.36740263 1313.6546797 704.37220108 1314.09799576 708.37660789 C1314.51441914 712.13958381 1314.92607451 715.90305212 1315.33416367 719.66694069 C1315.48404755 721.04209315 1315.63556838 722.41706841 1315.78890991 723.7918396 C1316.58089119 730.90148244 1317.17800161 737.84452293 1317 745 C1310.99580643 743.37427981 1305.9630406 740.28227161 1300.625 737.1875 C1291.99565242 732.24271903 1283.31559718 727.40996362 1274.5625 722.6875 C1273.50820801 722.11862061 1272.45391602 721.54974121 1271.36767578 720.96362305 C1268.91270473 719.64069146 1266.45690556 718.31933446 1264 717 C1263.73751465 717.86230225 1263.4750293 718.72460449 1263.20458984 719.61303711 C1261.98472872 723.04293848 1260.4937664 726.01156173 1258.7265625 729.19140625 C1258.40679443 729.76990829 1258.08702637 730.34841034 1257.75756836 730.94444275 C1256.71874742 732.82016991 1255.67239966 734.69155143 1254.625 736.5625 C1253.89874875 737.86578678 1253.17267617 739.16917314 1252.44677734 740.47265625 C1250.98874743 743.08801488 1249.52690228 745.70119295 1248.0625 748.31298828 C1246.23514566 751.57423787 1244.42835083 754.84650191 1242.625 758.12109375 C1237.09858386 768.07939423 1231.34286343 777.27314136 1224 786 C1223.37480469 786.76441406 1222.74960938 787.52882813 1222.10546875 788.31640625 C1218.12674383 793.04956208 1213.76218885 797.06930444 1209 801 C1208.49500977 801.42796875 1207.99001953 801.8559375 1207.46972656 802.296875 C1197.59325157 810.65256796 1187.25842919 817.63963199 1176 824 C1175.1656543 824.47405273 1174.33130859 824.94810547 1173.47167969 825.43652344 C1093.69269923 870.21685105 995.32793571 884.0463498 514.43805695 922.06322479 C512.11532151 922.122078 509.79261478 922.18196846 507.46990967 922.24200439 C446.54945036 923.80070966 385.62028004 924.16973106 324.68281949 924.12856925 C318.48312085 924.12481261 312.28343827 924.126152 306.08374023 924.13037109 C253.7157332 924.16501824 201.36218417 923.78650455 149 923 C147.70535702 922.98056084 146.41071404 922.96112167 145.07683945 922.94109344 C129.80040765 922.70882068 114.52509657 922.43206885 99.25 922.125 C97.12874384 922.08287826 95.00748732 922.0407747 92.88623047 921.99868774 C17.15032559 920.4882483 -58.56204919 918.30330172 -134.2670542 915.68515486 C-139.00942524 915.52115561 -143.75182929 915.35816458 -148.49426562 915.19606459 C-156.75552247 914.91361661 -165.01657221 914.62578241 -173.27745247 914.33252716 C-176.02217761 914.23521589 -178.76695532 914.13973551 -181.5118084 914.04610443 C-207.5155209 913.15259246 -233.53854379 911.8813429 -259.4375 909.3125 C-260.67472809 909.19086487 -260.67472809 909.19086487 -261.93695068 909.06677246 C-348.43159535 900.45078979 -441.81753916 883.6509516 -526.51708984 815.41552734 C-527.8591556 814.13444449 -529.21958521 812.87266783 -530.58203125 811.61328125 C-553.81389051 789.50736024 -569.31659395 759.18086244 -576.8125 728.25 C-577.00739014 727.44796143 -577.20228027 726.64592285 -577.40307617 725.81958008 C-580.62266323 711.70249251 -581.37439803 697.84786902 -581.3125 683.4375 C-581.30976578 682.11481613 -581.30976578 682.11481613 -581.30697632 680.76541138 C-581.26013583 667.29228796 -580.64352817 654.24365983 -578 641 C-577.75056641 639.6692041 -577.75056641 639.6692041 -577.49609375 638.31152344 C-570.91821629 603.53404171 -558.27252139 570.81510692 -543 539 C-542.52981445 538.01580078 -542.05962891 537.03160156 -541.57519531 536.01757812 C-534.61421773 521.53007299 -526.92673965 507.58403979 -518.66992188 493.79736328 C-517.12301702 491.20607149 -515.59689627 488.60394276 -514.078125 485.99609375 C-487.81753747 441.16713915 -455.98780242 399.04814143 -423 359 C-421.54155659 357.20842294 -420.08322483 355.41675498 -418.625 353.625 C-414.83128037 348.98529411 -410.9716714 344.4056355 -407.08862305 339.84082031 C-404.15762739 336.388975 -401.28303529 332.89804369 -398.4375 329.375 C-394.60746841 324.66426596 -390.56125836 320.19514882 -386.44921875 315.73046875 C-384.13939418 313.15540117 -381.96756987 310.51745637 -379.8125 307.8125 C-375.30972335 302.22616747 -370.43633217 297.0293788 -365.49145508 291.83325195 C-361.78135418 287.93049513 -358.18167166 283.95780628 -354.65234375 279.89086914 C-352.25708578 277.14984181 -349.79061875 274.4784844 -347.3125 271.8125 C-346.26166081 270.6784391 -345.21088119 269.544323 -344.16015625 268.41015625 C-343.63309082 267.84184082 -343.10602539 267.27352539 -342.56298828 266.68798828 C-341.07904596 265.08536766 -339.59915441 263.47913845 -338.12109375 261.87109375 C-315.50077882 237.26782913 -315.50077882 237.26782913 -304.42407227 226.4609375 C-301.87318868 223.95486615 -299.46753981 221.39712498 -297.16015625 218.66455078 C-291.57611641 212.2597745 -285.48338294 206.33966717 -279.47265625 200.33984375 C-278.1564654 199.02297787 -276.8404229 197.7059637 -275.52452087 196.3888092 C-272.77683856 193.63965926 -270.0273731 190.89230881 -267.27661133 188.14624023 C-263.76877437 184.64409997 -260.26544693 181.13748849 -256.76345158 177.62950802 C-254.04992594 174.91235145 -251.33400155 172.19760257 -248.6173687 169.48355293 C-247.32538104 168.19222755 -246.03412245 166.90017228 -244.74363899 165.60734367 C-232.87961293 153.72648706 -232.87961293 153.72648706 -226.59129333 148.36891174 C-224.40088602 146.48461158 -222.36935941 144.46527918 -220.34375 142.40625 C-219.54839844 141.60316406 -218.75304687 140.80007812 -217.93359375 139.97265625 C-217.13050781 139.15667969 -216.32742188 138.34070313 -215.5 137.5 C-210.4102087 132.32851061 -205.29790534 127.29560967 -199.79101562 122.56835938 C-197.23090114 120.3265143 -194.87769629 117.93499018 -192.5 115.5 C-188.74517009 111.6879239 -184.88833861 108.07298766 -180.81640625 104.6015625 C-179.0159885 103.01409739 -177.35451023 101.35112406 -175.6875 99.625 C-171.99167014 95.86197323 -167.9290151 92.62430956 -163.82421875 89.3203125 C-161.14206334 87.11671594 -158.56373579 84.83956175 -156 82.5 C-151.66803858 78.55310182 -147.18334716 74.8386551 -142.62890625 71.15234375 C-139.00849313 68.18823137 -135.4929259 65.11260732 -132 62 C-133.40839495 57.70554982 -135.45854776 55.12953521 -138.5625 51.875 C-142.03919781 48.15353467 -145.36495561 44.40628308 -148.5625 40.4375 C-151.48479807 36.81426271 -154.48561599 33.31185525 -157.625 29.875 C-169 17.38049209 -169 17.38049209 -169 15 C-154.11387435 13.63464698 -139.22772957 12.26950264 -124.34156418 10.90458298 C-117.42399003 10.27030277 -110.50642154 9.6359609 -103.58886719 9.00146484 C-100.90039103 8.7548784 -98.21191433 8.50829782 -95.5234375 8.26171875 C-94.52837079 8.17045133 -94.52837079 8.17045133 -93.51320171 8.07734013 C-82.35894345 7.05430771 -71.20451253 6.03316655 -60.05002594 5.01262665 C-52.93047532 4.3609305 -45.81119467 3.70639877 -38.69219589 3.04870224 C-34.54854606 2.66615854 -30.4047416 2.28530966 -26.2609024 1.9048233 C-24.36970895 1.73074602 -22.47858842 1.55587427 -20.5875473 1.38014984 C-18.02762427 1.14233321 -15.46746359 0.90725978 -12.90722656 0.67285156 C-12.17003136 0.60363243 -11.43283615 0.5344133 -10.6733017 0.46309662 C-7.1031106 0.1391125 -3.58524071 -0.07516754 0 0 Z M-243 385 C-246.22529154 397.39206173 -248.94412622 409.86248265 -251.546875 422.3984375 C-251.96692404 424.41106657 -252.3871959 426.42364915 -252.80767822 428.43618774 C-253.68024793 432.61590198 -254.55067929 436.79605361 -255.41943359 440.9765625 C-256.53448779 446.34177909 -257.65419953 451.70601093 -258.77537155 457.06995201 C-259.63990183 461.20787746 -260.50242966 465.34621819 -261.36429596 469.48469925 C-261.7768426 471.46482924 -262.18992131 473.44484845 -262.60353851 475.4247551 C-263.1774533 478.17387551 -263.74877066 480.92352259 -264.31933594 483.67333984 C-264.49071579 484.49192978 -264.66209564 485.31051971 -264.83866882 486.15391541 C-265.69109007 490.04424001 -265.69109007 490.04424001 -266 494 C-253.92444883 494.06994052 -241.84894695 494.12303277 -229.77323341 494.15543652 C-224.16417845 494.17099959 -218.55526349 494.19206398 -212.94628906 494.22631836 C-207.519206 494.25924922 -202.0922564 494.27692309 -196.66508102 494.28463173 C-194.60895058 494.29011538 -192.55282628 494.3008207 -190.49675369 494.31719017 C-174.52024258 494.43916681 -158.7589868 493.63126512 -143.5625 488.1875 C-142.81863037 487.92815674 -142.07476074 487.66881348 -141.30834961 487.40161133 C-126.23493176 481.97950679 -113.15907665 473.07949509 -105 459 C-98.04749348 444.0026979 -96.52693381 427.82251091 -102 412 C-106.92023728 401.36930551 -113.61772538 394.89063556 -124.3515625 390.28515625 C-141.94350482 384.08842282 -161.31070806 384.84638225 -179.71875 384.90234375 C-181.5567623 384.90421449 -183.3947751 384.90563528 -185.23278809 384.90663147 C-190.01329993 384.91040509 -194.79378021 384.92018975 -199.57427979 384.93133545 C-204.47529677 384.94166199 -209.37631897 384.9461529 -214.27734375 384.95117188 C-223.85157619 384.96181797 -233.42578544 384.97883043 -243 385 Z " fill="#000000" transform="translate(592,78)"/>
<path d="M0 0 C1.92602038 1.78207858 3.83898393 3.57672013 5.75 5.375 C6.40871094 5.99117188 7.06742188 6.60734375 7.74609375 7.2421875 C43.8632156 42.10813884 64.59454385 94.38652543 65.97265625 144.109375 C66.98817892 202.86405266 46.27810456 255.85930304 5.73046875 298.33203125 C2.24528555 301.92134691 -1.35732742 305.23117778 -5.25 308.375 C-6.32449048 309.27311251 -7.39868005 310.17158507 -8.47265625 311.0703125 C-42.30038356 339.07022957 -86.28413754 358.30621778 -130.703125 358.578125 C-131.47723724 358.58513931 -132.25134949 358.59215363 -133.04891968 358.59938049 C-135.53267312 358.61677625 -138.01618788 358.62323265 -140.5 358.625 C-141.35003601 358.62567474 -142.20007202 358.62634949 -143.0758667 358.62704468 C-156.02018886 358.61072279 -168.55704 358.12733425 -181.25 355.375 C-182.06452637 355.20339355 -182.87905273 355.03178711 -183.71826172 354.85498047 C-219.93319002 347.02718353 -252.70676543 330.61891964 -279.984375 305.453125 C-282.0517788 303.55681669 -284.16750093 301.74470394 -286.3125 299.9375 C-321.81578664 268.74835775 -344.08489464 217.96652127 -347.96875 171.40625 C-351.55189757 115.72964934 -336.79637209 60.74429597 -299.80664062 18.14453125 C-295.6998902 13.47612989 -291.53492888 8.88180222 -287.25 4.375 C-286.33347656 3.39660156 -286.33347656 3.39660156 -285.3984375 2.3984375 C-220.92082713 -64.5238216 -113.82557203 -71.17736063 0 0 Z M-147.25 -27.625 C-147.3307316 -23.68709217 -147.39037469 -19.75082931 -147.4375 -15.8125 C-147.46263672 -14.69294922 -147.48777344 -13.57339844 -147.51367188 -12.41992188 C-147.52333984 -11.34677734 -147.53300781 -10.27363281 -147.54296875 -9.16796875 C-147.5586792 -8.17821045 -147.57438965 -7.18845215 -147.59057617 -6.16870117 C-147.45227807 -3.59762092 -147.45227807 -3.59762092 -145.91918945 -1.80200195 C-143.32465387 0.02749286 -141.32930729 -0.24008659 -138.25 -0.625 C-136.47408518 -1.74384501 -136.47408518 -1.74384501 -135.25 -3.625 C-134.8362902 -6.23654091 -134.8362902 -6.23654091 -134.95703125 -9.16796875 C-134.9715332 -10.77768555 -134.9715332 -10.77768555 -134.98632812 -12.41992188 C-135.01146484 -13.53947266 -135.03660156 -14.65902344 -135.0625 -15.8125 C-135.07603516 -16.94365234 -135.08957031 -18.07480469 -135.10351562 -19.24023438 C-135.13889695 -22.03535882 -135.19270421 -24.83023889 -135.25 -27.625 C-139.21 -27.625 -143.17 -27.625 -147.25 -27.625 Z M-57.25 38.375 C-57.62769531 38.77589844 -58.00539063 39.17679687 -58.39453125 39.58984375 C-61.85069193 43.15932117 -65.43245056 46.3948125 -69.3125 49.5 C-73.81035623 53.1155607 -78.05091338 56.91777254 -82.25 60.875 C-87.15940364 65.49815459 -92.19480374 69.84102645 -97.4609375 74.05859375 C-101.88734163 77.73486497 -106.05801112 81.67926372 -110.265625 85.6015625 C-114.87148226 89.89481799 -119.6310007 93.99829422 -124.42578125 98.078125 C-125.61745686 99.09343394 -126.8088541 100.10906967 -128 101.125 C-128.60360352 101.63973877 -129.20720703 102.15447754 -129.82910156 102.68481445 C-133.77466688 106.06590089 -137.63094991 109.52610427 -141.4375 113.0625 C-146.01441832 117.29767509 -150.71691998 121.30739942 -155.58203125 125.20703125 C-156.46246094 125.92246094 -157.34289062 126.63789062 -158.25 127.375 C-158.79248383 127.78517868 -159.33496765 128.19535736 -159.89389038 128.6179657 C-164.5914804 132.33492596 -167.03767068 135.94561378 -169.45703125 141.375 C-169.81968079 142.1505423 -170.18233032 142.92608459 -170.55596924 143.72512817 C-171.74079055 146.26801733 -172.90138711 148.82121003 -174.0625 151.375 C-174.89657818 153.17514127 -175.73246516 154.97444543 -176.57006836 156.77294922 C-178.29584184 160.48287174 -180.01331104 164.19646525 -181.72460938 167.91308594 C-185.15997873 175.3612004 -188.68310606 182.76722297 -192.20675659 190.17385864 C-194.05540761 194.06284732 -195.89646148 197.95542897 -197.73828125 201.84765625 C-200.4660565 207.60973168 -203.19587546 213.37083375 -205.92771912 219.13098145 C-207.55970906 222.5720927 -209.1912225 226.0134298 -210.82272339 229.45477295 C-211.59342586 231.08008671 -212.36435224 232.70529432 -213.13552856 234.3303833 C-215.19954995 238.68000157 -217.25724995 243.03250498 -219.30883789 247.38800049 C-220.24067558 249.3553141 -221.1846524 251.31641967 -222.13085938 253.27685547 C-222.69095703 254.4526416 -223.25105469 255.62842773 -223.828125 256.83984375 C-224.3221582 257.86585693 -224.81619141 258.89187012 -225.32519531 259.94897461 C-225.63038086 260.74956299 -225.93556641 261.55015137 -226.25 262.375 C-225.92 263.035 -225.59 263.695 -225.25 264.375 C-219.00401384 259.44194562 -213.04065181 254.3292357 -207.25 248.875 C-202.34045223 244.25198102 -197.30521279 239.90898679 -192.0390625 235.69140625 C-187.61265837 232.01513503 -183.44198888 228.07073628 -179.234375 224.1484375 C-174.62851774 219.85518201 -169.8689993 215.75170578 -165.07421875 211.671875 C-163.88254314 210.65656606 -162.6911459 209.64093033 -161.5 208.625 C-160.89639648 208.11026123 -160.29279297 207.59552246 -159.67089844 207.06518555 C-155.72534169 203.68410646 -151.86889068 200.22405793 -148.0625 196.6875 C-144.43716792 193.31916553 -140.73767607 190.0957798 -136.875 187 C-134.99538527 185.46396303 -133.12116744 183.92131611 -131.25 182.375 C-130.44401619 181.71905098 -130.44401619 181.71905098 -129.62174988 181.04985046 C-119.60747028 172.7887305 -113.90643104 164.60728092 -108.6875 152.8125 C-107.97136235 151.26146047 -107.25214795 149.71183822 -106.5300293 148.16357422 C-104.73610443 144.30047612 -102.97788972 140.42234196 -101.22912598 136.53863525 C-99.23939428 132.14180202 -97.18745811 127.77397678 -95.14672852 123.40063477 C-93.56391163 120.00303015 -91.994649 116.59937646 -90.42578125 113.1953125 C-86.83533352 105.44191339 -83.10737201 97.75687615 -79.37399292 90.07174683 C-74.30022996 79.62156668 -69.37005884 69.11048493 -64.51171875 58.55859375 C-64.01027344 57.470625 -63.50882813 56.38265625 -62.9921875 55.26171875 C-62.52522461 54.24513184 -62.05826172 53.22854492 -61.57714844 52.18115234 C-60.38932106 49.66958356 -59.12432329 47.22194161 -57.8203125 44.76953125 C-55.83159493 41.48802658 -55.83159493 41.48802658 -57.25 38.375 Z M-320.25 145.375 C-320.25 149.665 -320.25 153.955 -320.25 158.375 C-316.85368528 158.45607913 -313.45931384 158.51553944 -310.0625 158.5625 C-309.10279297 158.58763672 -308.14308594 158.61277344 -307.15429688 158.63867188 C-300.18453462 158.77148176 -300.18453462 158.77148176 -294.25 155.375 C-292.91666667 153.04166667 -292.91666667 153.04166667 -293.25 150.375 C-294.99405494 147.49932779 -294.99405494 147.49932779 -298.25 145.375 C-302.03887649 144.75897115 -305.73674027 144.90339931 -309.5625 145.0625 C-310.58923828 145.08505859 -311.61597656 145.10761719 -312.67382812 145.13085938 C-315.19984666 145.18960399 -317.72511224 145.27927974 -320.25 145.375 Z M12.5390625 147.7265625 C10.48681879 150.2137296 10.48681879 150.2137296 10.8125 153.0625 C11.63303421 155.5177942 11.63303421 155.5177942 13.75 157.375 C16.27377655 157.65308217 16.27377655 157.65308217 19.1953125 157.5703125 C20.27167969 157.56386719 21.34804688 157.55742188 22.45703125 157.55078125 C23.58496094 157.53402344 24.71289062 157.51726562 25.875 157.5 C27.01066406 157.49097656 28.14632813 157.48195313 29.31640625 157.47265625 C32.12769337 157.44903199 34.93887262 157.4131601 37.75 157.375 C37.75 153.415 37.75 149.455 37.75 145.375 C34.18622982 145.23989498 30.62758883 145.14082901 27.0625 145.0625 C26.05509766 145.02060547 25.04769531 144.97871094 24.00976562 144.93554688 C17.84783144 144.80445167 17.84783144 144.80445167 12.5390625 147.7265625 Z M-145.91918945 305.55200195 C-147.7645767 308.07988795 -147.59229958 309.81012615 -147.54296875 312.91796875 C-147.53330078 313.99111328 -147.52363281 315.06425781 -147.51367188 316.16992188 C-147.48853516 317.28947266 -147.46339844 318.40902344 -147.4375 319.5625 C-147.42396484 320.69365234 -147.41042969 321.82480469 -147.39648438 322.99023438 C-147.36110305 325.78535882 -147.30729579 328.58023889 -147.25 331.375 C-143.29 331.375 -139.33 331.375 -135.25 331.375 C-135.1692684 327.43709217 -135.10962531 323.50082931 -135.0625 319.5625 C-135.03736328 318.44294922 -135.01222656 317.32339844 -134.98632812 316.16992188 C-134.97666016 315.09677734 -134.96699219 314.02363281 -134.95703125 312.91796875 C-134.9413208 311.92821045 -134.92561035 310.93845215 -134.90942383 309.91870117 C-135.04772193 307.34762092 -135.04772193 307.34762092 -136.58081055 305.55200195 C-139.55636467 303.45383808 -142.94363533 303.45383808 -145.91918945 305.55200195 Z " fill="#469EF7" transform="translate(967.25,428.625)"/>
<path d="M0 0 C1.75241262 -0.00152907 3.50482725 -0.00831336 5.25720215 -0.01991272 C9.99261113 -0.03609775 14.72446431 0.02186872 19.45923686 0.09439015 C24.43987535 0.15865287 29.42051737 0.15651069 34.40150452 0.16246033 C42.7736555 0.18177538 51.14448741 0.24536813 59.51611328 0.33984375 C70.20491947 0.46032376 80.89286394 0.51286951 91.58226681 0.54177189 C100.83106813 0.56685358 110.0796933 0.6185104 119.32833791 0.67688441 C121.29841081 0.68896711 123.26848915 0.70019518 125.23857188 0.7105515 C130.87057527 0.74027123 136.50208811 0.78444601 142.13378143 0.8510685 C143.8265933 0.86913473 145.51946219 0.88264775 147.21235085 0.89079666 C178.10102532 1.05316311 208.98540747 7.1354176 232.13305664 28.93334961 C253.15604299 50.72313182 258.01917605 80.62737228 257.66430664 109.80444336 C257.00944418 133.65841489 248.19662706 157.45761998 232.45336914 175.40991211 C231.86297852 176.14338867 231.27258789 176.87686523 230.66430664 177.63256836 C215.40272533 196.04388029 193.44079407 206.44671809 170.45336914 211.40991211 C171.35958008 211.82241211 172.26579102 212.23491211 173.19946289 212.65991211 C189.24564019 220.17328308 197.21290708 229.49894637 203.27758789 246.23413086 C206.98080156 258.64038349 207.88597283 270.30398223 207.73461914 283.1796875 C207.70344943 285.84055828 207.69362326 288.50082956 207.68774414 291.16186523 C207.65249805 298.8740046 207.49717305 306.54420058 206.95336914 314.23803711 C206.29748668 323.7059986 206.23131293 333.16556304 206.21313477 342.65380859 C206.20341643 345.70755132 206.17226596 348.76062253 206.14086914 351.81420898 C206.07883707 363.54335996 206.81830614 374.72578742 209.06842041 386.24699402 C209.60968397 389.28820092 210.01651892 392.35196058 210.45336914 395.40991211 C182.07336914 395.40991211 153.69336914 395.40991211 124.45336914 395.40991211 C121.07231553 378.50464406 121.07231553 378.50464406 121.05493164 372.18725586 C121.05097382 371.49058304 121.04701599 370.79391022 121.04293823 370.0761261 C121.03726969 367.83279291 121.05613184 365.59062927 121.07836914 363.34741211 C121.08235718 362.16894714 121.08235718 362.16894714 121.08642578 360.9666748 C121.13836449 347.66437259 122.00768872 334.49384633 123.16394043 321.24755859 C127.15175268 287.74028582 127.15175268 287.74028582 115.45336914 257.40991211 C106.43672971 247.44324362 95.35024237 244.0030169 82.16001892 243.28508759 C75.53593413 243.05478276 68.90889479 243.03277289 62.28149414 242.99584961 C60.14629389 242.97711087 58.01110083 242.95753551 55.87591553 242.93716431 C50.29313423 242.88612277 44.71032899 242.84634833 39.12744141 242.809021 C33.41571264 242.76880472 27.70408103 242.71779331 21.99243164 242.66772461 C10.81281267 242.57129714 -0.36686152 242.4867875 -11.54663086 242.40991211 C-11.65281738 243.60564346 -11.75900391 244.80137482 -11.8684082 246.03334045 C-12.60160134 252.58644824 -14.02498691 258.99228794 -15.39819336 265.43505859 C-15.69264265 266.8320619 -15.9867201 268.22914363 -16.28045654 269.626297 C-17.07399775 273.39521845 -17.87290018 277.16298448 -18.672966 280.93052554 C-19.51074847 284.87945269 -20.34404748 288.82932608 -21.17797852 292.77906799 C-22.57717214 299.40266331 -23.97977694 306.02552907 -25.38452148 312.64794922 C-27.00939983 320.30831727 -28.62924993 327.9697352 -30.24635506 335.63174766 C-31.80336835 343.00863848 -33.36351151 350.38486372 -34.92523193 357.76075935 C-35.58964193 360.89887738 -36.25301969 364.03721101 -36.91558838 367.17571831 C-37.69442559 370.8641351 -38.47601746 374.55195753 -39.25977325 378.2393322 C-39.54735146 379.5944566 -39.8339853 380.9497818 -40.11962128 382.30531693 C-40.50859054 384.15045011 -40.90128463 385.99479692 -41.29418945 387.83909607 C-41.51319916 388.87271995 -41.73220886 389.90634382 -41.95785522 390.97128963 C-42.54663086 393.40991211 -42.54663086 393.40991211 -43.54663086 395.40991211 C-72.25663086 395.40991211 -100.96663086 395.40991211 -130.54663086 395.40991211 C-129.42162738 384.15987735 -129.42162738 384.15987735 -128.42686462 379.39048767 C-128.20255453 378.30241664 -127.97824444 377.21434561 -127.74713707 376.09330273 C-127.50170977 374.92926576 -127.25628246 373.76522879 -127.00341797 372.56591797 C-126.7419076 371.3050578 -126.48039722 370.04419764 -126.2109623 368.74512959 C-125.49010264 365.27028199 -124.76282144 361.79680617 -124.03440976 358.32353497 C-123.24835953 354.56980151 -122.46830572 350.81482155 -121.68748474 347.05999756 C-120.1590549 339.71477498 -118.62509967 332.37071679 -117.08932751 325.0270263 C-115.29708251 316.45570549 -113.51078232 307.88314898 -111.72466135 299.31055033 C-107.58244232 279.43125501 -103.42993117 259.55411502 -99.27484536 239.67750567 C-97.93650415 233.275298 -96.59848565 226.87302297 -95.26068115 220.47070312 C-88.95527247 190.29514907 -82.64897596 160.11978009 -76.33128035 129.9467957 C-75.83508812 127.57699017 -75.33893162 125.20717715 -74.84278393 122.83736229 C-73.46472551 116.25529968 -72.08664436 109.67324206 -70.70739049 103.09142983 C-70.42916283 101.76335683 -70.15107163 100.43525523 -69.87312108 99.10712421 C-69.20707127 95.92455288 -68.53918542 92.74239004 -67.86816883 89.56086159 C-66.66001273 83.81733268 -65.47151705 78.07170446 -64.35199058 72.31027693 C-63.95829868 70.28668566 -63.55939607 68.26418704 -63.1590519 66.24190235 C-62.66233738 63.72185746 -62.17613786 61.19970816 -61.70244408 58.67523479 C-59.84226453 49.31319952 -56.77580397 44.45831536 -50.23413086 37.53491211 C-49.25037227 36.4782584 -48.26729853 35.42096667 -47.28491211 34.36303711 C-46.81263184 33.85579102 -46.34035156 33.34854492 -45.85375977 32.82592773 C-44.1755971 31.00797042 -42.54324745 29.153379 -40.92163086 27.28491211 C-37.6920166 23.56549854 -34.43026032 19.88006102 -31.07721043 16.27110386 C-28.49976958 13.44694069 -28.49976958 13.44694069 -26.29338741 10.32178402 C-18.6985421 0.53905295 -11.92818231 -0.2907539 0 0 Z M25.45336914 69.40991211 C22.2280776 81.80197384 19.50924292 94.27239476 16.90649414 106.80834961 C16.4864451 108.82097868 16.06617324 110.83356126 15.64569092 112.84609985 C14.77312121 117.02581409 13.90268985 121.20596571 13.03393555 125.38647461 C11.91888135 130.7516912 10.79916961 136.11592303 9.67799759 141.47986412 C8.81346731 145.61778957 7.95093948 149.7561303 7.08907318 153.89461136 C6.67652654 155.87474135 6.26344783 157.85476056 5.84983063 159.83466721 C5.27591584 162.58378762 4.70459848 165.3334347 4.1340332 168.08325195 C3.96265335 168.90184189 3.7912735 169.72043182 3.61470032 170.56382751 C2.76227907 174.45415212 2.76227907 174.45415212 2.45336914 178.40991211 C14.52892031 178.47985263 26.60442219 178.53294488 38.68013573 178.56534863 C44.28919069 178.5809117 49.89810565 178.60197609 55.50708008 178.63623047 C60.93416314 178.66916133 66.36111274 178.6868352 71.78828812 178.69454384 C73.84441856 178.70002749 75.90054286 178.7107328 77.95661545 178.72710228 C93.93312656 178.84907892 109.69438234 178.04117723 124.89086914 172.59741211 C125.63473877 172.33806885 126.3786084 172.07872559 127.14501953 171.81152344 C142.21843739 166.3894189 155.29429249 157.4894072 163.45336914 143.40991211 C170.40587566 128.41261001 171.92643533 112.23242302 166.45336914 96.40991211 C161.53313186 85.77921762 154.83564376 79.30054767 144.10180664 74.69506836 C126.50986432 68.49833493 107.14266108 69.25629436 88.73461914 69.31225586 C86.89660684 69.3141266 85.05859404 69.31554739 83.22058105 69.31654358 C78.44006921 69.3203172 73.65958894 69.33010186 68.87908936 69.34124756 C63.97807238 69.3515741 59.07705017 69.35606501 54.17602539 69.36108398 C44.60179296 69.37173008 35.0275837 69.38874254 25.45336914 69.40991211 Z " fill="#D93A25" transform="translate(323.546630859375,393.590087890625)"/>
<path d="M0 0 C6.34530977 0.29068529 12.69611977 0.39922315 19.04620361 0.53887939 C28.65481862 0.77031613 38.25344488 1.21261011 47.85455322 1.64794922 C54.65210562 39.63541884 60.92604556 77.71332623 67.27619815 115.7774415 C68.23221157 121.50793271 69.18869418 127.23834555 70.14525032 132.96874619 C72.80339124 148.89331703 75.46094407 164.81798577 78.11625576 180.74302864 C78.36881917 182.25775041 78.36881917 182.25775041 78.62648487 183.80307262 C78.8795503 185.32081033 78.8795503 185.32081033 79.13772815 186.86920941 C79.47945203 188.91866582 79.82117693 190.96812206 80.16290283 193.01757812 C80.41714855 194.54238815 80.41714855 194.54238815 80.67653055 196.09800242 C83.44021626 212.67217247 86.20830533 229.24560395 88.97821545 245.81873478 C91.834235 262.90747002 94.68661914 279.9968088 97.53533417 297.08676326 C99.13021915 306.65424184 100.72666421 316.22145422 102.32714653 325.7879982 C103.68475426 333.90291002 105.03905423 342.01836502 106.38899349 350.13455619 C107.07719476 354.27158849 107.76697553 358.40834116 108.46098709 362.54440308 C109.09588503 366.3283987 109.72629853 370.11311295 110.35313178 373.89845262 C110.580695 375.26775963 110.80990631 376.63679397 111.04092484 378.00552227 C111.35454405 379.86511235 111.66158292 381.72580862 111.96829891 383.58654976 C112.14069464 384.61972993 112.31309036 385.6529101 112.4907102 386.71739876 C112.85455322 389.64794922 112.85455322 389.64794922 112.85455322 395.64794922 C84.14455322 395.64794922 55.43455322 395.64794922 25.85455322 395.64794922 C20.8161104 367.09677324 17.0128971 338.34052198 12.85455322 309.64794922 C-35.32544678 309.31794922 -83.50544678 308.98794922 -133.14544678 308.64794922 C-133.80544678 310.62794922 -134.46544678 312.60794922 -135.14544678 314.64794922 C-135.88638394 316.12934 -136.6740885 317.58834964 -137.50872803 319.01904297 C-137.97633545 319.82801025 -138.44394287 320.63697754 -138.92572021 321.47045898 C-139.43135498 322.33340576 -139.93698975 323.19635254 -140.45794678 324.08544922 C-141.55360555 325.97832734 -142.64863654 327.87156896 -143.74310303 329.76513672 C-144.30787354 330.7393457 -144.87264404 331.71355469 -145.45452881 332.71728516 C-148.1349078 337.3628626 -150.7641719 342.03694205 -153.39544678 346.71044922 C-159.11610971 356.85333803 -164.88852631 366.96616578 -170.67767334 377.07006836 C-171.31672607 378.18631592 -171.95577881 379.30256348 -172.61419678 380.45263672 C-173.1755835 381.43216309 -173.73697021 382.41168945 -174.31536865 383.42089844 C-176.6183272 387.48179839 -178.87824178 391.56698022 -181.14544678 395.64794922 C-211.83544678 395.64794922 -242.52544678 395.64794922 -274.14544678 395.64794922 C-272.4618895 391.43905602 -270.56401513 387.62820524 -268.33294678 383.71044922 C-267.94332764 383.02225098 -267.5537085 382.33405273 -267.15228271 381.625 C-262.15240973 372.83939825 -256.97900311 364.15496652 -251.81732178 355.46386719 C-249.17146617 351.00748597 -246.53282862 346.54684926 -243.89544678 342.08544922 C-243.36838135 341.1943042 -242.84131592 340.30315918 -242.29827881 339.38500977 C-239.21196092 334.16190456 -236.1378113 328.93182376 -233.07513428 323.69482422 C-231.64030201 321.24166203 -230.20545144 318.78851057 -228.77044678 316.33544922 C-228.41086884 315.72076782 -228.05129089 315.10608643 -227.68081665 314.47277832 C-222.66012422 305.8943041 -217.58664162 297.34996784 -212.45794678 288.83544922 C-205.87471115 277.90393126 -199.43025871 266.89613376 -193.01702881 255.86425781 C-189.5896859 249.97437842 -186.15125444 244.09100758 -182.70794678 238.21044922 C-182.34962769 237.59837616 -181.99130859 236.9863031 -181.62213135 236.35568237 C-176.04417754 226.83271776 -170.38162831 217.36327182 -164.68231201 207.91235352 C-159.45954166 199.22674248 -154.39089748 190.45645575 -149.34368896 181.66796875 C-145.87528593 175.63250913 -142.37180485 169.62731156 -138.76361084 163.67431641 C-134.77908882 157.0818757 -130.90777028 150.42294023 -127.02044678 143.77294922 C-121.55566633 134.42609988 -116.04563193 125.10959717 -110.45794678 115.83544922 C-103.87457525 104.90401453 -97.43025734 93.8961314 -91.01702881 82.86425781 C-87.58968615 76.97437884 -84.15136532 71.09094227 -80.70794678 65.21044922 C-80.17096664 64.29333664 -80.17096664 64.29333664 -79.62313843 63.35769653 C-74.09575337 53.92284227 -68.50890539 44.52532502 -62.84490967 35.17163086 C-62.02881226 33.81992798 -62.02881226 33.81992798 -61.19622803 32.44091797 C-60.55459717 31.47009277 -59.91296631 30.49926758 -59.25189209 29.49902344 C-57.32590503 26.33349888 -56.30980561 23.12631281 -55.20306396 19.59765625 C-45.91135172 -5.90193519 -22.92129091 -1.16107925 0 0 Z M-15.14544678 89.64794922 C-15.59758545 90.50211426 -16.04972412 91.3562793 -16.51556396 92.23632812 C-25.14511157 108.53367585 -33.81938003 124.80159089 -42.68304443 140.97314453 C-45.33047137 145.81541657 -47.95618048 150.66944766 -50.58294678 155.52294922 C-51.12338623 156.52132812 -51.66382568 157.51970703 -52.22064209 158.54833984 C-53.31529939 160.57075018 -54.40986293 162.59321126 -55.5043335 164.61572266 C-58.75712659 170.62579262 -62.01283884 176.63428173 -65.26800537 182.64306641 C-67.98983739 187.66760925 -70.71095907 192.69253416 -73.43060303 197.71826172 C-74.24404175 199.22102661 -74.24404175 199.22102661 -75.07391357 200.75415039 C-76.15508266 202.75155899 -77.23597884 204.74911533 -78.31658936 206.74682617 C-81.05003474 211.79597419 -83.79511196 216.8383288 -86.55950928 221.87060547 C-87.10921387 222.87269043 -87.65891846 223.87477539 -88.22528076 224.90722656 C-89.26920614 226.80864508 -90.31545982 228.70878783 -91.36444092 230.60742188 C-91.83229004 231.45997559 -92.30013916 232.3125293 -92.78216553 233.19091797 C-93.19168457 233.93365967 -93.60120361 234.67640137 -94.02313232 235.44165039 C-95.21006996 237.77498853 -96.17319111 240.21731006 -97.14544678 242.64794922 C-63.48544678 242.64794922 -29.82544678 242.64794922 4.85455322 242.64794922 C4.19619502 232.77257611 3.41154525 223.07438447 2.18048096 213.27709961 C2.01248827 211.91534278 1.8448668 210.55354011 1.67758179 209.19169617 C1.22891176 205.54760254 0.77514972 201.90416022 0.32036471 198.2608254 C-0.1564626 194.4335723 -0.62845741 190.60572314 -1.10099792 186.77793884 C-1.9936261 179.55316161 -2.89050498 172.32891893 -3.78896993 165.10486549 C-4.81287353 156.87050488 -5.83194919 148.63554896 -6.85064995 140.40054333 C-8.94360135 123.48235104 -11.0425163 106.56490395 -13.14544678 89.64794922 C-13.80544678 89.64794922 -14.46544678 89.64794922 -15.14544678 89.64794922 Z " fill="#469EF7" transform="translate(1588.1454467773438,393.35205078125)"/>
<path d="M0 0 C15.48587981 -0.1564732 30.95151104 0.2550648 46.42822266 0.74462891 C49.94989815 0.85556076 53.47179826 0.95566283 56.99386024 1.05343437 C60.40500256 1.15047145 63.81573503 1.25965872 67.2265625 1.3671875 C68.47668121 1.40061249 69.72679993 1.43403748 71.01480103 1.46847534 C72.19408173 1.50836578 73.37336243 1.54825623 74.58837891 1.58935547 C75.61250885 1.62044403 76.63663879 1.65153259 77.69180298 1.68356323 C83.69771395 2.25804264 89.03294152 3.39802875 94.46147156 6.08825684 C112.70454562 15.02763231 131.4118093 14.68484053 151.28845811 15.09118843 C156.24429043 15.2016651 161.19858898 15.36060974 166.15324402 15.51403809 C175.51910474 15.79701173 184.88553159 16.03844714 194.25293416 16.26392508 C205.90337838 16.54637065 217.55218218 16.88236913 229.20117188 17.21875 C241.11852321 17.56153913 253.03586474 17.89967177 264.95429993 18.20275879 C266.78973436 18.25000191 268.62516833 18.29726311 270.46060181 18.34454346 C273.81681492 18.43089393 277.17308531 18.51391205 280.5294342 18.5947876 C285.02050032 18.70669049 289.51033798 18.84146296 294 19 C294.82600637 19.02907377 295.65201274 19.05814754 296.50304961 19.08810234 C299.00882914 19.18260448 301.51344747 19.29246518 304.01835632 19.40759277 C304.78971131 19.43647913 305.5610663 19.4653655 306.35579568 19.4951272 C311.7693668 19.7693668 311.7693668 19.7693668 314 22 C315.36677586 25.77992778 315.32514283 29.84640131 315.53515625 33.82421875 C315.57826935 34.59378906 315.62138245 35.36335938 315.665802 36.15625 C315.80372683 38.66640004 315.93418648 41.17684107 316.0625 43.6875 C316.12928452 44.97909531 316.12928452 44.97909531 316.19741821 46.29678345 C317.5199385 72.24042904 316.8457708 98.05328132 316 124 C316.99 124.33 317.98 124.66 319 125 C319.02688151 126.64574566 319.04634123 128.29161413 319.0625 129.9375 C319.07410156 130.85402344 319.08570313 131.77054688 319.09765625 132.71484375 C319 135 319 135 318 136 C308.25946368 136.41995235 298.42432733 135.89193468 288.6875 135.5625 C288.01588837 135.54043488 287.34427673 135.51836975 286.65231323 135.49563599 C276.42366319 135.15853802 266.20990326 134.71302445 256 134 C256.04640625 132.85402344 256.0928125 131.70804688 256.140625 130.52734375 C256.17816909 128.99742209 256.21456641 127.46747199 256.25 125.9375 C256.30027344 124.80924805 256.30027344 124.80924805 256.3515625 123.65820312 C256.47480392 116.54101103 254.2602392 112.5427691 249.5 107.1875 C244.70032306 102.98778267 240.84369223 102.66068022 234.5625 102.6875 C233.81162109 102.67138672 233.06074219 102.65527344 232.28710938 102.63867188 C227.69249018 102.63463087 224.71486434 103.02810853 221 106 C219.20495526 107.93126526 219.20495526 107.93126526 217.75 110.0625 C216.99976563 111.10083984 216.99976563 111.10083984 216.234375 112.16015625 C213.3646385 116.43751667 213.67210584 120.80299516 213.48242188 125.79492188 C213.44826172 126.48521484 213.41410156 127.17550781 213.37890625 127.88671875 C213.34132202 128.81810669 213.34132202 128.81810669 213.30297852 129.76831055 C213 132 213 132 212.07055664 135.08544922 C210.64617872 139.88746324 210.11031867 144.78722177 209.4921875 149.74609375 C209.36184113 150.75720718 209.23149475 151.76832062 209.09719849 152.81007385 C208.68474793 156.01859302 208.27976669 159.22800337 207.875 162.4375 C207.59554587 164.62180802 207.31560316 166.8060536 207.03515625 168.99023438 C206.35111365 174.32611305 205.67319014 179.66274189 205 185 C201.1770407 186.09892618 198.26886601 185.75488279 194.3125 185.25 C187.25899686 184.64751327 183.67274459 186.06789889 178 190 C177.01 190.33 176.02 190.66 175 191 C172.36807351 198.24693649 170.054218 208.23889238 173.06640625 215.609375 C174.55946796 217.68328839 176.08594557 219.31266728 178 221 C178.825 221.78375 179.65 222.5675 180.5 223.375 C186.05865052 225.95580203 191.94657836 226.36978076 198 227 C198.93745951 230.06212184 199.00967284 232.38162548 198.5954895 235.54747009 C198.48051117 236.45447159 198.36553284 237.36147308 198.24707031 238.29595947 C198.11413574 239.28360291 197.98120117 240.27124634 197.84423828 241.28881836 C197.64204178 242.85772575 197.64204178 242.85772575 197.4357605 244.45832825 C196.98778662 247.91980914 196.52915927 251.37978874 196.0703125 254.83984375 C195.75679356 257.24345693 195.44388469 259.64714976 195.13156128 262.05091858 C194.47517583 267.09110508 193.81398157 272.13062806 193.14892578 277.16967773 C192.29634399 283.62971826 191.45165885 290.09075741 190.61006355 296.55223751 C189.80766775 302.71093651 189.00178722 308.86917774 188.1953125 315.02734375 C188.04144199 316.20382917 187.88757149 317.3803146 187.72903824 318.5924511 C187.29276935 321.92248228 186.85408098 325.25218501 186.41455078 328.58178711 C186.28566467 329.56740631 186.15677856 330.55302551 186.02398682 331.56851196 C185.84305984 332.93324394 185.84305984 332.93324394 185.65847778 334.32554626 C185.50305102 335.50548361 185.50305102 335.50548361 185.34448433 336.70925808 C184.97611013 339.15886217 184.50397891 341.57498109 184 344 C183.38253906 343.9278125 182.76507812 343.855625 182.12890625 343.78125 C179.42184195 343.48458542 176.71231967 343.24346207 174 343 C173.23558594 342.896875 172.47117187 342.79375 171.68359375 342.6875 C165.4602329 342.15311481 161.97767592 344.5096222 157.06640625 348.17578125 C153.08634127 351.68937358 152.40803433 354.96166305 152 360 C151.89945313 360.9384375 151.79890625 361.876875 151.6953125 362.84375 C151.33856256 368.49466912 151.42572395 372.13976113 155.1875 376.5625 C159.88019233 381.31653472 164.19628914 383.31870464 170.8125 384.1875 C171.97394531 384.34605469 173.13539063 384.50460937 174.33203125 384.66796875 C175.65267578 384.83232422 175.65267578 384.83232422 177 385 C175.57761622 392.75617187 173.66286755 400.33102465 171.59375 407.9375 C171.26838257 409.13938965 170.94301514 410.3412793 170.60778809 411.57958984 C169.92372952 414.10123038 169.23786956 416.62238286 168.55029297 419.14306641 C167.84644407 421.72777235 167.14539032 424.31300976 166.44970703 426.89990234 C165.44198628 430.64347371 164.42533993 434.38450973 163.40625 438.125 C163.09473999 439.28636475 162.78322998 440.44772949 162.46228027 441.64428711 C162.02172302 443.24735718 162.02172302 443.24735718 161.57226562 444.8828125 C161.31626587 445.82527832 161.06026611 446.76774414 160.79650879 447.73876953 C160 450 160 450 158 452 C152.95150364 452.3959605 148.71188326 451.86697261 144 450 C143.15538208 448.77108032 143.15538208 448.77108032 142.29370117 447.51733398 C139.22209341 444.14624855 136.31580541 443.9043865 131.98828125 443.41015625 C130.75577385 443.24266624 130.75577385 443.24266624 129.49836731 443.0717926 C126.66796611 442.69305149 123.83446685 442.34692588 121 442 C118.82708132 441.71774716 116.65440076 441.43365652 114.48193359 441.14794922 C106.15180938 440.06084449 97.81685158 439.01277734 89.48022461 437.97680664 C85.89628197 437.53020869 82.31334656 437.07614414 78.73046875 436.62109375 C77.63985641 436.48771103 76.54924408 436.35432831 75.42558289 436.21690369 C70.39873259 435.57427836 65.74631674 434.88165772 61 433 C60.07155611 428.66726186 60.07155611 425.33273814 61 421 C59.329375 421.061875 59.329375 421.061875 57.625 421.125 C54 421 54 421 52 419 C51.96095276 416.2494812 51.96095276 416.2494812 52.26391602 412.77685547 C52.3739798 411.51097595 52.48404358 410.24509644 52.59744263 408.94085693 C53.22443393 402.80289203 53.96859247 396.68680377 54.77734375 390.5703125 C54.9507061 389.24188061 55.12384266 387.91341924 55.29676819 386.58493042 C55.65633661 383.83002237 56.01885802 381.07552405 56.38354492 378.32128906 C56.84788768 374.81227367 57.3042267 371.30227009 57.75833797 367.7919178 C58.11274616 365.0598235 58.4715942 362.32832598 58.83172798 359.59698105 C59.08352589 357.68088912 59.33147784 355.76429303 59.57933044 353.84768677 C59.81451134 352.08447586 59.81451134 352.08447586 60.05444336 350.28564453 C60.18910507 349.26197784 60.32376678 348.23831116 60.46250916 347.18362427 C61.46485525 341.24660528 62.50982402 336.57599859 65.60346985 331.40493774 C76.46619838 313.1926373 78.42407758 294.70891593 80.82816482 274.02268553 C81.40531587 269.14082537 82.03376532 264.26555129 82.65632629 259.38931274 C83.823255 250.18968649 84.94581367 240.98524197 86.05148631 231.77807486 C87.31148719 221.3035759 88.62055635 210.835392 89.93408239 200.36749148 C91.53623726 187.59735307 93.13176204 174.82647869 94.68778992 162.05062866 C94.79735193 161.15153282 94.90691394 160.25243699 95.01979601 159.32609582 C95.5317318 155.12183971 96.04186488 150.91737539 96.54927063 146.71257019 C96.72859782 145.23492133 96.90794821 143.75727528 97.08732605 142.27963257 C97.24042834 141.01107611 97.39353064 139.74251965 97.55127239 138.43552208 C97.96410731 135.2747995 98.45347598 132.14006421 99 129 C96.36 129 93.72 129 91 129 C91.04640625 127.77023437 91.0928125 126.54046875 91.140625 125.2734375 C91.17816036 123.6406494 91.21455862 122.00783489 91.25 120.375 C91.28351563 119.56675781 91.31703125 118.75851562 91.3515625 117.92578125 C91.44155397 112.39130583 90.62008696 109.42455073 87 105 C86.54496094 104.38511719 86.08992188 103.77023437 85.62109375 103.13671875 C83.45834623 100.48860215 82.30358287 99.10119429 79 98 C75.90108889 97.69957789 72.79928201 97.67666732 69.6875 97.625 C68.84509766 97.58761719 68.00269531 97.55023438 67.13476562 97.51171875 C62.8360115 97.45122026 59.94054349 97.56902866 56.5390625 100.359375 C50.70090758 106.43105611 48.91319558 110.33553336 48.4375 118.6875 C48.37272461 119.7403418 48.37272461 119.7403418 48.30664062 120.81445312 C48.2008264 122.54275206 48.09993419 124.2713511 48 126 C36.17444441 124.14920183 24.35140326 122.28294139 12.53057861 120.40216064 C10.12196836 120.01938326 7.71311238 119.6381899 5.30419922 119.25732422 C1.13873035 118.59773381 -3.02448125 117.92488153 -7.1875 117.25 C-8.44385254 117.05188721 -9.70020508 116.85377441 -10.99462891 116.6496582 C-12.14495605 116.46105225 -13.2952832 116.27244629 -14.48046875 116.078125 C-15.47973389 115.91731445 -16.47899902 115.75650391 -17.50854492 115.59082031 C-20 115 -20 115 -23 113 C-23.50390625 110.2421875 -23.50390625 110.2421875 -23.5625 106.875 C-23.60503906 105.77929688 -23.64757813 104.68359375 -23.69140625 103.5546875 C-22.96178646 99.80353489 -22.47250769 99.24871401 -20.01855469 96.60302734 C-15.77768956 91.09680093 -16.06541919 85.52639503 -16.01171875 78.796875 C-15.97818802 77.52386536 -15.94465729 76.25085571 -15.91011047 74.93927002 C-15.8258736 71.56013852 -15.76619582 68.18245753 -15.71917725 64.80273438 C-15.66717879 61.43315405 -15.58597795 58.06432208 -15.50585938 54.6953125 C-15.38548194 49.50988437 -15.2729527 44.32438294 -15.16552734 39.13867188 C-15.02617751 32.82415198 -14.85060486 26.51353032 -14.58203125 20.203125 C-14.55372726 19.38414734 -14.52542328 18.56516968 -14.4962616 17.72137451 C-14.23480529 12.23480529 -14.23480529 12.23480529 -12 10 C-9.3984375 9.8046875 -9.3984375 9.8046875 -6.375 9.875 C-4.87066406 9.90207031 -4.87066406 9.90207031 -3.3359375 9.9296875 C-2.56507812 9.95289063 -1.79421875 9.97609375 -1 10 C-1.020625 8.72125 -1.04125 7.4425 -1.0625 6.125 C-1.125 2.25 -1.125 2.25 0 0 Z M16 28 C14.50989613 30.98020775 14.74057808 34.07007128 14.6484375 37.34375 C14.62528473 38.06864624 14.60213196 38.79354248 14.57827759 39.54040527 C14.53064699 41.07357841 14.4854118 42.60682754 14.44238281 44.14013672 C14.37526117 46.49085337 14.29750526 48.84105393 14.21875 51.19140625 C14.17383622 52.67966824 14.12954443 54.16794915 14.0859375 55.65625 C14.06203949 56.36148804 14.03814148 57.06672607 14.01351929 57.79333496 C13.85349305 61.51950229 13.85349305 61.51950229 15 65 C19.02596184 66.34693864 23.20898257 66.26317683 27.4140625 66.38671875 C28.22491302 66.41224319 29.03576355 66.43776764 29.8711853 66.46406555 C31.58071912 66.51595723 33.29032887 66.56539769 35 66.61254883 C37.62284573 66.68743849 40.2448621 66.77801261 42.8671875 66.86914062 C44.52861798 66.91763062 46.19007597 66.96518885 47.8515625 67.01171875 C48.63802155 67.04077805 49.42448059 67.06983734 50.23477173 67.09977722 C52.15628146 67.14451822 54.07969884 67.08151601 56 67 C58.93787799 64.06212201 58.46918033 60.82733942 58.625 56.875 C58.66149658 56.07835937 58.69799316 55.28171875 58.7355957 54.4609375 C59.32376895 42.72473452 59.32376895 42.72473452 59 31 C53.69837816 25.69837816 39.50059991 27.94819812 32.36303711 27.93408203 C26.90856436 27.93906947 21.45433686 27.96163905 16 28 Z M65 31 C64.68149102 33.55107662 64.48314428 36.00081454 64.375 38.5625 C64.33850342 39.30959229 64.30200684 40.05668457 64.2644043 40.82641602 C64.01758923 46.36096932 63.87104473 51.89785409 63.8125 57.4375 C63.79944824 58.16461182 63.78639648 58.89172363 63.77294922 59.64086914 C63.7699575 61.42884612 63.87604596 63.21632233 64 65 C69.5960183 70.5960183 86.83326029 68.13514906 94.3125 68.1875 C95.42826416 68.20055176 96.54402832 68.21360352 97.69360352 68.22705078 C98.73959717 68.22817871 99.78559082 68.22930664 100.86328125 68.23046875 C101.80469971 68.23457764 102.74611816 68.23868652 103.71606445 68.24291992 C106.19807799 68.22082508 106.19807799 68.22082508 108 66 C108.25746646 63.51960834 108.39743671 61.14249787 108.44921875 58.65625 C108.47095657 57.93135376 108.4926944 57.20645752 108.51509094 56.45959473 C108.55901722 54.92647591 108.59821503 53.39321545 108.63305664 51.85986328 C108.68729286 49.50897868 108.75747471 47.15897538 108.83007812 44.80859375 C108.87073664 43.32033802 108.910481 41.83205697 108.94921875 40.34375 C108.96997971 39.63851196 108.99074066 38.93327393 109.01213074 38.20666504 C109.15150656 34.48007788 109.15150656 34.48007788 108 31 C104.16357243 29.72119081 100.46866545 29.72698161 96.46484375 29.61328125 C95.21315147 29.57499458 95.21315147 29.57499458 93.93617249 29.53593445 C92.17358391 29.48396844 90.41091907 29.43453647 88.64819336 29.38745117 C85.94405549 29.31268126 83.24073569 29.22208678 80.53710938 29.13085938 C78.82554813 29.08236032 77.11395991 29.03480217 75.40234375 28.98828125 C74.59087387 28.95922195 73.77940399 28.93016266 72.94334412 28.90022278 C68.50187898 28.5981187 68.50187898 28.5981187 65 31 Z M115 33 C113.77493274 41.30965436 113.89075529 49.92560939 113.8125 58.3125 C113.79944824 59.14257568 113.78639648 59.97265137 113.77294922 60.82788086 C113.76995216 62.88664332 113.87615206 64.94496386 114 67 C116.59403813 69.59403813 117.77536836 69.29928311 121.390625 69.4140625 C122.48697266 69.45297607 123.58332031 69.49188965 124.71289062 69.53198242 C126.46375977 69.57802612 126.46375977 69.57802612 128.25 69.625 C129.42755859 69.66149658 130.60511719 69.69799316 131.81835938 69.7355957 C135.21205125 69.83550652 138.60578562 69.92010542 142 70 C142.84626953 70.02336426 143.69253906 70.04672852 144.56445312 70.07080078 C150.28947503 70.27262738 150.28947503 70.27262738 156 70 C158.85022139 67.14977861 158.39056972 64.26390732 158.484375 60.4375 C158.52053925 59.31686157 158.52053925 59.31686157 158.55743408 58.17358398 C158.60574725 56.59340104 158.64913544 55.01306103 158.68798828 53.43261719 C158.74976884 51.00906794 158.83281045 48.58689001 158.91796875 46.1640625 C158.96222119 44.63024483 159.00523184 43.09639073 159.046875 41.5625 C159.07279724 40.83538818 159.09871948 40.10827637 159.12542725 39.35913086 C159.16177851 37.57263451 159.08986086 35.78460518 159 34 C156.59374098 31.59374098 155.92351147 31.71603656 152.625 31.5859375 C151.73006836 31.54702393 150.83513672 31.50811035 149.91308594 31.46801758 C148.4711084 31.42197388 148.4711084 31.42197388 147 31.375 C146.02063477 31.33850342 145.04126953 31.30200684 144.03222656 31.2644043 C141.02170597 31.1603664 138.01135825 31.07572942 135 31 C134.08669922 30.97663574 133.17339844 30.95327148 132.23242188 30.92919922 C129.7381741 30.87394689 127.2447159 30.83771474 124.75 30.8125 C123.99460937 30.79944824 123.23921875 30.78639648 122.4609375 30.77294922 C118.27269939 30.62569238 118.27269939 30.62569238 115 33 Z M166 33 C164.44564613 37.83054833 163.75156612 41.86825095 163.76953125 46.9921875 C163.77146484 48.27351563 163.77339844 49.55484375 163.77539062 50.875 C163.78159424 51.53113281 163.78779785 52.18726563 163.79418945 52.86328125 C163.81264336 54.89075065 163.81469741 56.9177672 163.81445312 58.9453125 C163.25987449 64.85370425 163.25987449 64.85370425 165 70 C170.35575302 70.83646938 175.57893349 71.13876991 181 71.09765625 C181.7211499 71.0962413 182.4422998 71.09482635 183.18530273 71.09336853 C185.45691324 71.08783381 187.72842 71.07529423 190 71.0625 C191.55338398 71.05747654 193.10676952 71.05291512 194.66015625 71.04882812 C198.44014328 71.03788589 202.22005414 71.0206676 206 71 C207.745609 66.47404276 208.24678169 62.7265444 208.23046875 57.88671875 C208.23001053 57.23169876 208.22955231 56.57667877 208.2290802 55.90180969 C208.22607911 54.52949186 208.21825776 53.15717677 208.20581055 51.78491211 C208.1874009 49.6761483 208.1853022 47.56782067 208.18554688 45.45898438 C208.78915002 39.25435357 208.78915002 39.25435357 207 34 C198.43760511 32.43424237 189.54479254 32.88473254 180.875 32.9375 C179.42708489 32.94252748 177.97916808 32.94708817 176.53125 32.95117188 C173.02079741 32.96207295 169.51040993 32.97926798 166 33 Z M216 34 C213.53820608 37.69269089 213.6647856 39.77583041 213.515625 44.1875 C213.4915155 44.88641357 213.46740601 45.58532715 213.44256592 46.30541992 C213.39432946 47.78126609 213.35092472 49.25727701 213.31201172 50.73339844 C213.25021112 52.99228322 213.16714095 55.24969965 213.08203125 57.5078125 C213.03777768 58.94266928 212.99476706 60.37756505 212.953125 61.8125 C212.91348633 63.11832031 212.87384766 64.42414063 212.83300781 65.76953125 C212.73196642 69.15154038 212.73196642 69.15154038 215 72 C217.99960237 72.40055852 220.80021226 72.60853574 223.8125 72.6875 C224.68946533 72.72020996 225.56643066 72.75291992 226.4699707 72.78662109 C233.20682673 73.0121575 239.94717204 73.09527612 246.6875 73.125 C247.60184814 73.12975342 248.51619629 73.13450684 249.45825195 73.1394043 C253.55263549 73.54563134 253.55263549 73.54563134 257 72 C258.30941372 64.07885526 258.1323789 55.8780889 258.1875 47.875 C258.20695679 46.3269165 258.20695679 46.3269165 258.22680664 44.74755859 C258.22801514 43.77641113 258.22922363 42.80526367 258.23046875 41.8046875 C258.23457764 40.92796387 258.23868652 40.05124023 258.24291992 39.14794922 C258.20177669 36.7863335 258.20177669 36.7863335 256 35 C253.01481945 34.71712399 250.11699057 34.55353788 247.125 34.48046875 C246.24473145 34.45398758 245.36446289 34.42750641 244.45751953 34.40022278 C242.59486147 34.34750429 240.73205184 34.2999296 238.86914062 34.25708008 C236.01086895 34.18776358 233.15429918 34.09186611 230.296875 33.99414062 C228.48962556 33.94629425 226.68233374 33.90001731 224.875 33.85546875 C224.01664551 33.82438522 223.15829102 33.7933017 222.27392578 33.76127625 C219.62119242 33.67923746 219.62119242 33.67923746 216 34 Z M264 38 C263.71810499 40.4683185 263.55440023 42.83237756 263.48046875 45.30859375 C263.45398758 46.03111832 263.42750641 46.75364288 263.40022278 47.49806213 C263.34752469 49.02694613 263.2999456 50.55601382 263.25708008 52.08520508 C263.18784938 54.42568844 263.09191502 56.76407235 262.99414062 59.10351562 C262.94628345 60.58848993 262.90000692 62.07351619 262.85546875 63.55859375 C262.82438522 64.2586705 262.7933017 64.95874725 262.76127625 65.68003845 C262.62930115 69.43269536 262.62930115 69.43269536 264.2744751 72.67962646 C267.29875546 74.99380909 271.08452098 74.52613311 274.75390625 74.58203125 C276.03889259 74.61607307 276.03889259 74.61607307 277.34983826 74.65080261 C279.15941698 74.69537199 280.96918545 74.73273568 282.77905273 74.76342773 C285.5559562 74.81238463 288.3312262 74.88785642 291.10742188 74.96679688 C292.86454811 75.0067873 294.62170989 75.04525087 296.37890625 75.08203125 C297.62892174 75.11620903 297.62892174 75.11620903 298.90419006 75.15107727 C300.93656259 75.1787267 302.96983947 75.09874604 305 75 C310.16844756 69.83155244 308.11566494 54.3730109 308.1875 47.125 C308.20055176 46.34640625 308.21360352 45.5678125 308.22705078 44.765625 C308.23004534 42.8422627 308.12389806 40.91936989 308 39 C302.40242687 33.40242687 284.71901046 35.86809637 277.125 35.8125 C276.06071777 35.79944824 274.99643555 35.78639648 273.89990234 35.77294922 C272.9042627 35.77182129 271.90862305 35.77069336 270.8828125 35.76953125 C269.54307373 35.76336792 269.54307373 35.76336792 268.17626953 35.75708008 C265.78957371 35.79422576 265.78957371 35.79422576 264 38 Z M116 129 C114.43069461 139.02263044 112.91492902 149.04619141 111.75 159.125 C111.65799316 159.88796387 111.56598633 160.65092773 111.47119141 161.43701172 C110.91670237 165.33088209 110.91670237 165.33088209 112 169 C115.58447128 170.02008669 119.31836138 170.44669015 123 171 C124.87365234 171.28230469 124.87365234 171.28230469 126.78515625 171.5703125 C133.23913108 172.48769431 139.48005819 173.26612007 146 173 C148.12520553 169.44075338 148.55542358 166.08737149 149.0703125 162.00390625 C149.19924393 160.9980674 149.19924393 160.9980674 149.33078003 159.97190857 C149.51058834 158.55779693 149.68687867 157.14323406 149.85986328 155.72827148 C150.12379882 153.57231182 150.3988355 151.41799496 150.67578125 149.26367188 C151.96673456 141.1469982 151.96673456 141.1469982 152 133 C145.43071953 128.62047969 136.20898769 129.69196577 128.5625 129.4375 C127.35400391 129.39431641 126.14550781 129.35113281 124.90039062 129.30664062 C121.93369394 129.20110596 118.96692098 129.09899286 116 129 Z M111 175 C108.88310536 178.55031256 108.44577584 181.88886815 107.9296875 185.9609375 C107.84373322 186.62912506 107.75777893 187.29731262 107.66921997 187.98574829 C107.4893901 189.39565972 107.313101 190.80602674 107.14013672 192.21679688 C106.87661708 194.36183702 106.60136342 196.50511972 106.32421875 198.6484375 C105.59001365 204.45414801 104.88424984 210.13495057 105 216 C110.83424088 218.31951591 116.81522621 218.92934234 123 219.6875 C124.06734375 219.82994141 125.1346875 219.97238281 126.234375 220.11914062 C127.27078125 220.24869141 128.3071875 220.37824219 129.375 220.51171875 C130.31085938 220.62990967 131.24671875 220.74810059 132.2109375 220.86987305 C135.28163381 221.01313995 137.99299897 220.60234267 141 220 C141.74019299 214.94765955 142.47030858 209.89400325 143.19116211 204.83886719 C143.43775061 203.11971897 143.68707842 201.40096134 143.93920898 199.68261719 C144.30134057 197.21126554 144.65356677 194.73867233 145.00390625 192.265625 C145.17570152 191.11540863 145.17570152 191.11540863 145.35096741 189.94195557 C145.85528919 186.31509741 146.03579638 183.50515701 145 180 C138.85189932 178.00555267 132.71517244 177.16775035 126.3125 176.375 C125.28060547 176.2409375 124.24871094 176.106875 123.18554688 175.96875 C119.07228441 175.44558359 115.15376312 175 111 175 Z M105 223 C102.71251166 226.43123252 102.46319042 228.54599789 101.9296875 232.609375 C101.84373322 233.25440979 101.75777893 233.89944458 101.66921997 234.56402588 C101.48910872 235.9285874 101.31283664 237.2936604 101.14013672 238.65917969 C100.87755357 240.72986302 100.60192031 242.79848354 100.32421875 244.8671875 C99.09774841 253.9003074 99.09774841 253.9003074 99 263 C101.72104753 265.72104753 104.4615718 265.69327818 108.125 266.140625 C108.8277002 266.23132263 109.53040039 266.32202026 110.25439453 266.41546631 C111.7400151 266.60455054 113.22620693 266.78919151 114.71289062 266.96972656 C116.99299242 267.24914126 119.2696836 267.54944592 121.546875 267.8515625 C122.98942435 268.03252188 124.43212865 268.21225123 125.875 268.390625 C126.55836426 268.48216858 127.24172852 268.57371216 127.94580078 268.66802979 C129.62284895 268.86317043 131.31264653 268.94161589 133 269 C135.97022513 266.02977487 135.80531677 262.50139928 136.2890625 258.4921875 C136.39721283 257.65156769 136.50536316 256.81094788 136.61679077 255.94485474 C136.96087363 253.25585079 137.29306116 250.56552737 137.625 247.875 C137.85598981 246.05328621 138.08775095 244.23167005 138.3203125 242.41015625 C138.88916953 237.94118839 139.44736176 233.47100127 140 229 C136.53397776 226.6993254 133.84954043 225.55861963 129.7265625 225.05078125 C128.7365625 224.92509766 127.7465625 224.79941406 126.7265625 224.66992188 C125.19128906 224.49299805 125.19128906 224.49299805 123.625 224.3125 C122.60921875 224.18294922 121.5934375 224.05339844 120.546875 223.91992188 C112.78901539 222.90043199 112.78901539 222.90043199 105 223 Z M99 270 C96.29099226 272.70900774 96.42913177 274.66125344 95.9296875 278.44140625 C95.75566406 279.74787109 95.58164063 281.05433594 95.40234375 282.40039062 C95.31581543 283.08464111 95.22928711 283.7688916 95.14013672 284.47387695 C94.87891188 286.53168407 94.60270875 288.58704488 94.32421875 290.64257812 C93.42243693 297.4663095 92.77168884 304.11261345 93 311 C96.45823857 312.51008323 99.56974739 313.37252386 103.30859375 313.8515625 C104.30310547 313.98046875 105.29761719 314.109375 106.32226562 314.2421875 C107.86430664 314.43167969 107.86430664 314.43167969 109.4375 314.625 C110.46166016 314.7590625 111.48582031 314.893125 112.54101562 315.03125 C119.75083538 316.03208131 119.75083538 316.03208131 127 316 C129.70900774 313.29099226 129.57086823 311.33874656 130.0703125 307.55859375 C130.24433594 306.25212891 130.41835937 304.94566406 130.59765625 303.59960938 C130.68418457 302.91535889 130.77071289 302.2311084 130.85986328 301.52612305 C131.12108812 299.46831593 131.39729125 297.41295512 131.67578125 295.35742188 C132.57756307 288.5336905 133.22831116 281.88738655 133 275 C125.94950441 273.01541606 118.89166667 272.09496124 111.625 271.25 C110.43777344 271.09917969 109.25054688 270.94835937 108.02734375 270.79296875 C106.89683594 270.66019531 105.76632812 270.52742188 104.6015625 270.390625 C103.57369629 270.26719727 102.54583008 270.14376953 101.48681641 270.01660156 C100.66616699 270.01112305 99.84551758 270.00564453 99 270 Z M93 318 C90.13925113 320.86074887 90.17186256 324.07311004 89.640625 327.9296875 C89.52773132 328.71642853 89.41483765 329.50316956 89.29852295 330.31375122 C89.06238016 331.97923251 88.83066471 333.64534661 88.60302734 335.31201172 C88.252039 337.86019679 87.8788453 340.4044616 87.50390625 342.94921875 C87.27728462 344.5675183 87.05198056 346.18600301 86.828125 347.8046875 C86.71470764 348.5652243 86.60129028 349.32576111 86.48443604 350.10934448 C86.1012575 353.02605148 85.89619862 355.55236498 86.56420898 358.43310547 C88.78927471 360.86134418 90.92458566 360.84807595 94.14453125 361.265625 C95.37880859 361.43320312 96.61308594 361.60078125 97.88476562 361.7734375 C99.18091797 361.93070313 100.47707031 362.08796875 101.8125 362.25 C103.09705078 362.42273438 104.38160156 362.59546875 105.70507812 362.7734375 C113.33169771 363.98149925 113.33169771 363.98149925 121 364 C123.32449951 360.51325074 123.54548036 358.30916711 124.0703125 354.171875 C124.19924393 353.17102875 124.19924393 353.17102875 124.33078003 352.14996338 C124.51091871 350.73831058 124.68718896 349.32615949 124.85986328 347.91357422 C125.12248609 345.77051408 125.39808729 343.62943486 125.67578125 341.48828125 C126.45890605 335.29276159 127.10353794 329.2585167 127 323 C120.85189932 321.00555267 114.71517244 320.16775035 108.3125 319.375 C107.28060547 319.2409375 106.24871094 319.106875 105.18554688 318.96875 C101.07228441 318.44558359 97.15376312 318 93 318 Z M86 366 C84.18483004 370.01022601 83.46839677 373.7381418 82.89453125 378.09375 C82.80620529 378.76289429 82.71787933 379.43203857 82.62687683 380.12145996 C82.44299717 381.52959943 82.26249766 382.938184 82.08520508 384.34716797 C81.8131659 386.49474311 81.52543514 388.63982011 81.23632812 390.78515625 C81.05894435 392.15873163 80.88248097 393.53242624 80.70703125 394.90625 C80.5469458 396.14697266 80.38686035 397.38769531 80.22192383 398.66601562 C80.01710988 401.7429565 80.15564544 404.05070521 81 407 C82.94032215 408.94032215 86.4394661 408.65766044 89.09765625 408.97265625 C90.16094398 409.1037101 90.16094398 409.1037101 91.24571228 409.2374115 C93.51750263 409.51647406 95.78996829 409.78954697 98.0625 410.0625 C99.59965743 410.250258 101.13676753 410.43840397 102.67382812 410.62695312 C106.44868351 411.08914478 110.22415526 411.54596469 114 412 C116.77938748 407.99425832 117.5785906 404.72132878 118.16796875 399.90625 C118.29477776 398.90253357 118.29477776 398.90253357 118.42414856 397.87854004 C118.59995175 396.47063672 118.7702449 395.06203551 118.93530273 393.65283203 C119.18688383 391.50525982 119.45417833 389.36011601 119.72460938 387.21484375 C120.76011508 379.13381902 120.76011508 379.13381902 121 371 C117.55395239 369.49676348 114.45129558 368.6290699 110.7265625 368.1484375 C109.7365625 368.01953125 108.7465625 367.890625 107.7265625 367.7578125 C106.70304687 367.63148438 105.67953125 367.50515625 104.625 367.375 C103.60921875 367.2409375 102.5934375 367.106875 101.546875 366.96875 C96.32175255 366.30373441 91.26666852 365.83680745 86 366 Z " fill="#DA3A25" transform="translate(1092,383)"/>
<path d="M0 0 C4.09577115 3.71476918 7.12235515 7.34148908 8.13671875 12.8984375 C8.4603735 20.152768 6.3676636 25.44202303 1.5625 30.8125 C-3.26086596 33.53875032 -8.24067199 34.94704493 -13.78515625 34.02734375 C-19.75167865 32.20451637 -23.92638652 29.82735084 -27.125 24.3125 C-29.07665005 19.044173 -29.51323394 13.42907216 -27.3984375 8.16015625 C-24.54877977 3.22381366 -20.99704679 -0.36751185 -15.43359375 -2.171875 C-10.10326771 -3.15351884 -4.85395855 -2.28960309 0 0 Z " fill="#469EF6" transform="translate(836.3125,564.5625)"/>
<path d="M0 0 C5.03684888 1.75777355 8.98743421 4.9765957 11.375 9.84765625 C13.06378858 15.66342191 13.21135628 22.44982761 10.4375 27.9375 C6.32063358 33.1099732 2.73123373 36.03707992 -3.9375 37 C-9.72324104 37.28094645 -14.38144664 36.36251703 -18.7578125 32.4140625 C-22.61485827 28.14708916 -24.76518337 24.48905633 -25.3125 18.6875 C-24.77128714 12.30118825 -23.35726297 7.84679359 -18.4375 3.5625 C-12.71286863 -0.95564992 -7.14589663 -0.72712632 0 0 Z M-13 13 C-14.44430855 15.88861709 -14.37688506 17.79647701 -14 21 C-11.54853142 24.31669279 -10.04375441 25.76080628 -6 26.6875 C-2.74250242 26.19513758 -2.74250242 26.19513758 -0.0625 23.375 C2.24545802 20.21391971 2.24545802 20.21391971 2.125 16.875 C0.72477163 13.29663862 -0.73066486 11.97680729 -4 10 C-8.29387011 10 -9.58866484 10.60284556 -13 13 Z " fill="#D83925" transform="translate(1333,489)"/>
<path d="M0 0 C3.81854877 2.66808857 6.34230662 5.81988862 7.828125 10.27734375 C8.54005 17.14233479 8.61607112 22.97674893 4.359375 28.65234375 C-0.08745273 33.37142624 -3.78445619 34.52917393 -10.109375 34.83984375 C-15.97298072 34.62702202 -19.83156737 33.22022562 -24.171875 29.27734375 C-28.51656802 24.48704118 -29.39636831 19.58267765 -29.171875 13.27734375 C-28.19940821 7.48348896 -25.53101893 4.00289691 -20.92578125 0.46484375 C-14.07577743 -4.17302075 -7.05843392 -3.90436994 0 0 Z M-18.171875 13.27734375 C-19.08854167 16.27734375 -19.08854167 16.27734375 -18.171875 19.27734375 C-15.66786494 22.36402081 -15.66786494 22.36402081 -12.171875 24.27734375 C-8.14627832 24.43836762 -6.72741347 23.77590392 -3.734375 21.08984375 C-1.92399475 18.36739004 -1.92399475 18.36739004 -2.171875 15.21484375 C-3.32752012 11.8201362 -4.23679557 10.339832 -7.171875 8.27734375 C-12.60454328 7.23704557 -14.95754396 8.92854293 -18.171875 13.27734375 Z " fill="#D83A25" transform="translate(1172.171875,485.72265625)"/>
<path d="M0 0 C5.48171291 5.08061197 8.24701366 8.58916394 8.875 16.125 C8.78646094 22.05711681 6.33248677 26.55717575 2.25 30.75 C-3.06612954 33.96440391 -8.06822253 34.93462883 -14.16015625 34.0390625 C-19.77663658 32.40132381 -23.46256461 28.98973674 -26.4375 24.0625 C-28.06211266 18.0717408 -28.39775672 12.93120585 -25.9375 7.125 C-20.5268249 -2.26853315 -9.58577143 -4.53145559 0 0 Z M-14.6875 10 C-16.87515579 12.96896142 -17.51299728 14.67563313 -17.4375 18.375 C-14.99545207 21.77906682 -13.52708249 23.1748726 -9.375 23.9375 C-5.77847053 23.24880287 -4.61675951 22.28067935 -2.4375 19.375 C-1.36107291 17.48649645 -1.36107291 17.48649645 -1.4375 15.375 C-3.07826492 11.92939366 -4.22262442 10.51825038 -7.4375 8.375 C-10.71560803 7.87067569 -11.9740062 8.04025448 -14.6875 10 Z " fill="#D73924" transform="translate(1294.4375,572.625)"/>
<path d="M0 0 C4.50665768 2.13473258 7.1741532 4.91822129 10 9 C11.69868838 14.09606514 12.01153119 19.99289368 10.28125 25.13671875 C7.65596701 30.01678109 4.23750665 33.25416445 -1 35 C-6.56545491 35.48988853 -11.40680952 35.76814541 -16.5 33.3125 C-20.83022555 29.30704137 -23.75836513 25.86954666 -25 20 C-25.09807511 13.94113737 -23.96647867 9.73773841 -20 5 C-13.5891157 -0.64768379 -8.40659006 -0.73724054 0 0 Z M-12.375 11.5625 C-14.63913895 14.95870843 -14.64269755 17.00099302 -14 21 C-12.06873898 23.67838573 -12.06873898 23.67838573 -9 25 C-5.19715329 25 -2.98069994 24.7968187 0 22.375 C1.46981805 18.88418213 0.98413921 16.60851044 0 13 C-2.25417042 10.4118784 -3.60520979 10.05757357 -7 9.5625 C-10.04672884 9.7906597 -10.04672884 9.7906597 -12.375 11.5625 Z " fill="#D93925" transform="translate(1271,729)"/>
</svg>
